<svg xmlns="http://www.w3.org/2000/svg" xml:space="preserve" width="800" height="800" viewBox="0 0 288.9 288.9">
  <path d="M182 152a12.2 12.2 0 0 0-17.2 1.6l-8.1 9.6v-151a12.2 12.2 0 1 0-24.4 0v151l-8.1-9.6a12.2 12.2 0 0 0-18.7 15.7l29.6 35.3.3.3 1.2 1.1.7.6 1.5.9.7.4 1.8.6.6.2a12.2 12.2 0 0 0 5.1 0l.7-.2 1.8-.6.7-.4 1.4-.9.7-.6 1.2-1c0-.2.2-.3.3-.4l29.7-35.3A12.2 12.2 0 0 0 182 152z" style="fill:#010002"/>
  <path d="M230.6 289H58.3c-13 0-23.7-10.7-23.7-23.8V93a23.8 23.8 0 0 1 23.7-23.8h44.3a12.2 12.2 0 0 1 0 24.4H59v171h171v-171h-42.7a12.2 12.2 0 0 1 0-24.4h43.3c13 0 23.7 10.7 23.7 23.7v172.3c0 13-10.6 23.7-23.7 23.7z" style="fill:#010002"/>
</svg>
