<svg xmlns="http://www.w3.org/2000/svg" width="800" height="800" fill="none" viewBox="0 0 24 24">
  <path stroke="#000" stroke-linecap="round" stroke-linejoin="round" stroke-width="2" d="M6.5 19h11a5 5 0 0 0 .89-.04 2 2 0 0 0 1.57-1.57c.04-.2.04-.43.04-.89s0-.7-.04-.89a2 2 0 0 0-1.57-1.57c-.2-.04-.43-.04-.89-.04h-11c-.46 0-.7 0-.89.04a2 2 0 0 0-1.57 1.57c-.04.2-.04.43-.04.89s0 .7.04.89a2 2 0 0 0 1.57 1.57 5 5 0 0 0 .89.04Zm0-9h11c.46 0 .7 0 .89-.04a2 2 0 0 0 1.57-1.57c.04-.2.04-.43.04-.89s0-.7-.04-.89a2 2 0 0 0-1.57-1.57C18.19 5 17.96 5 17.5 5h-11c-.46 0-.7 0-.89.04A2 2 0 0 0 4.04 6.6C4 6.81 4 7.04 4 7.5s0 .7.04.89A2 2 0 0 0 5.6 9.96c.2.04.43.04.89.04Z"/>
</svg>
