<svg xmlns="http://www.w3.org/2000/svg" class="svg-icon" style="width:1em;height:1em;vertical-align:middle;fill:currentColor;overflow:hidden" viewBox="0 0 1024 1024">
  <path d="M513 230H152v641h590V545l52-49v375c0 29-23 52-52 52H152c-28 0-51-23-51-52V230c0-28 23-51 51-51h411l2 1-52 50zm294-77c15 0 30 7 40 19 14 11 22 27 25 44-2 18-11 35-25 47L515 591l-16 16-123 39 38-126 347-346c12-12 28-20 46-21m0-52c-31 2-61 15-83 36L372 489l-5 10c-9 34-56 185-56 186a22 22 0 0 0 21 28l6-1a22584 22584 0 0 1 192-64l354-349c26-27 39-55 39-84-2-31-17-60-41-80-19-21-47-33-76-33l1-1z"/>
</svg>
